<mxfile host="app.diagrams.net" agent="Mozilla/5.0 (Windows NT 10.0; Win64; x64) AppleWebKit/537.36 (KHTML, like Gecko) Chrome/127.0.0.0 Safari/537.36" version="26.0.12">
  <diagram name="Page-1" id="JQcALVB2hyG3Zp6NJq8T">
    <mxGraphModel dx="1400" dy="585" grid="1" gridSize="10" guides="1" tooltips="1" connect="1" arrows="1" fold="1" page="1" pageScale="1" pageWidth="1100" pageHeight="850" math="0" shadow="0">
      <root>
        <mxCell id="0" />
        <mxCell id="1" parent="0" />
        <mxCell id="fP4-B5e6X9TCayEdW0Dm-2" value="LOGIN PROCESS" style="text;html=1;align=center;verticalAlign=middle;whiteSpace=wrap;rounded=0;" vertex="1" parent="1">
          <mxGeometry x="50" y="30" width="190" height="70" as="geometry" />
        </mxCell>
        <mxCell id="fP4-B5e6X9TCayEdW0Dm-3" value="Start" style="ellipse;whiteSpace=wrap;html=1;" vertex="1" parent="1">
          <mxGeometry x="440" y="90" width="120" height="80" as="geometry" />
        </mxCell>
        <mxCell id="fP4-B5e6X9TCayEdW0Dm-9" style="edgeStyle=orthogonalEdgeStyle;rounded=0;orthogonalLoop=1;jettySize=auto;html=1;exitX=0.5;exitY=1;exitDx=0;exitDy=0;entryX=0.5;entryY=0;entryDx=0;entryDy=0;" edge="1" parent="1" source="fP4-B5e6X9TCayEdW0Dm-4" target="fP4-B5e6X9TCayEdW0Dm-5">
          <mxGeometry relative="1" as="geometry" />
        </mxCell>
        <mxCell id="fP4-B5e6X9TCayEdW0Dm-4" value="Input Credentials" style="shape=parallelogram;perimeter=parallelogramPerimeter;whiteSpace=wrap;html=1;fixedSize=1;" vertex="1" parent="1">
          <mxGeometry x="410" y="210" width="160" height="60" as="geometry" />
        </mxCell>
        <mxCell id="fP4-B5e6X9TCayEdW0Dm-11" style="edgeStyle=orthogonalEdgeStyle;rounded=0;orthogonalLoop=1;jettySize=auto;html=1;exitX=0.5;exitY=1;exitDx=0;exitDy=0;entryX=0.5;entryY=0;entryDx=0;entryDy=0;" edge="1" parent="1" source="fP4-B5e6X9TCayEdW0Dm-5" target="fP4-B5e6X9TCayEdW0Dm-6">
          <mxGeometry relative="1" as="geometry" />
        </mxCell>
        <mxCell id="fP4-B5e6X9TCayEdW0Dm-5" value="Verify Credentials" style="rounded=0;whiteSpace=wrap;html=1;" vertex="1" parent="1">
          <mxGeometry x="430" y="310" width="120" height="60" as="geometry" />
        </mxCell>
        <mxCell id="fP4-B5e6X9TCayEdW0Dm-13" style="edgeStyle=orthogonalEdgeStyle;rounded=0;orthogonalLoop=1;jettySize=auto;html=1;exitX=1;exitY=0.5;exitDx=0;exitDy=0;entryX=0.5;entryY=0;entryDx=0;entryDy=0;" edge="1" parent="1" source="fP4-B5e6X9TCayEdW0Dm-6" target="fP4-B5e6X9TCayEdW0Dm-7">
          <mxGeometry relative="1" as="geometry" />
        </mxCell>
        <mxCell id="fP4-B5e6X9TCayEdW0Dm-34" style="edgeStyle=orthogonalEdgeStyle;rounded=0;orthogonalLoop=1;jettySize=auto;html=1;exitX=0;exitY=0.5;exitDx=0;exitDy=0;" edge="1" parent="1" source="fP4-B5e6X9TCayEdW0Dm-6" target="fP4-B5e6X9TCayEdW0Dm-32">
          <mxGeometry relative="1" as="geometry" />
        </mxCell>
        <mxCell id="fP4-B5e6X9TCayEdW0Dm-6" value="Have Access" style="rhombus;whiteSpace=wrap;html=1;" vertex="1" parent="1">
          <mxGeometry x="420" y="390" width="140" height="140" as="geometry" />
        </mxCell>
        <mxCell id="fP4-B5e6X9TCayEdW0Dm-26" style="edgeStyle=orthogonalEdgeStyle;rounded=0;orthogonalLoop=1;jettySize=auto;html=1;exitX=1;exitY=0.5;exitDx=0;exitDy=0;entryX=0;entryY=0.5;entryDx=0;entryDy=0;" edge="1" parent="1" source="fP4-B5e6X9TCayEdW0Dm-7" target="fP4-B5e6X9TCayEdW0Dm-25">
          <mxGeometry relative="1" as="geometry" />
        </mxCell>
        <mxCell id="fP4-B5e6X9TCayEdW0Dm-28" style="edgeStyle=orthogonalEdgeStyle;rounded=0;orthogonalLoop=1;jettySize=auto;html=1;exitX=0;exitY=0.5;exitDx=0;exitDy=0;entryX=1;entryY=0.5;entryDx=0;entryDy=0;" edge="1" parent="1" source="fP4-B5e6X9TCayEdW0Dm-7" target="fP4-B5e6X9TCayEdW0Dm-27">
          <mxGeometry relative="1" as="geometry" />
        </mxCell>
        <mxCell id="fP4-B5e6X9TCayEdW0Dm-7" value="Role is Manager" style="rhombus;whiteSpace=wrap;html=1;" vertex="1" parent="1">
          <mxGeometry x="650" y="530" width="140" height="140" as="geometry" />
        </mxCell>
        <mxCell id="fP4-B5e6X9TCayEdW0Dm-8" style="edgeStyle=orthogonalEdgeStyle;rounded=0;orthogonalLoop=1;jettySize=auto;html=1;exitX=0.5;exitY=1;exitDx=0;exitDy=0;entryX=0.563;entryY=0.021;entryDx=0;entryDy=0;entryPerimeter=0;" edge="1" parent="1" source="fP4-B5e6X9TCayEdW0Dm-3" target="fP4-B5e6X9TCayEdW0Dm-4">
          <mxGeometry relative="1" as="geometry" />
        </mxCell>
        <mxCell id="fP4-B5e6X9TCayEdW0Dm-15" value="FALSE" style="text;html=1;align=center;verticalAlign=middle;whiteSpace=wrap;rounded=0;" vertex="1" parent="1">
          <mxGeometry x="350" y="440" width="60" height="30" as="geometry" />
        </mxCell>
        <mxCell id="fP4-B5e6X9TCayEdW0Dm-17" value="TRUE" style="text;html=1;align=center;verticalAlign=middle;whiteSpace=wrap;rounded=0;" vertex="1" parent="1">
          <mxGeometry x="570" y="440" width="60" height="30" as="geometry" />
        </mxCell>
        <mxCell id="fP4-B5e6X9TCayEdW0Dm-21" style="edgeStyle=orthogonalEdgeStyle;rounded=0;orthogonalLoop=1;jettySize=auto;html=1;entryX=0;entryY=0.5;entryDx=0;entryDy=0;exitX=0.5;exitY=0;exitDx=0;exitDy=0;" edge="1" parent="1" source="fP4-B5e6X9TCayEdW0Dm-18" target="fP4-B5e6X9TCayEdW0Dm-4">
          <mxGeometry relative="1" as="geometry">
            <Array as="points">
              <mxPoint x="270" y="240" />
            </Array>
          </mxGeometry>
        </mxCell>
        <mxCell id="fP4-B5e6X9TCayEdW0Dm-23" style="edgeStyle=orthogonalEdgeStyle;rounded=0;orthogonalLoop=1;jettySize=auto;html=1;exitX=0;exitY=0.5;exitDx=0;exitDy=0;entryX=1;entryY=0.5;entryDx=0;entryDy=0;" edge="1" parent="1" source="fP4-B5e6X9TCayEdW0Dm-18" target="fP4-B5e6X9TCayEdW0Dm-22">
          <mxGeometry relative="1" as="geometry" />
        </mxCell>
        <mxCell id="fP4-B5e6X9TCayEdW0Dm-18" value="Login&lt;div&gt;attempts &amp;gt; 3&lt;/div&gt;" style="rhombus;whiteSpace=wrap;html=1;" vertex="1" parent="1">
          <mxGeometry x="220" y="290" width="100" height="100" as="geometry" />
        </mxCell>
        <mxCell id="fP4-B5e6X9TCayEdW0Dm-22" value="" style="ellipse;whiteSpace=wrap;html=1;aspect=fixed;" vertex="1" parent="1">
          <mxGeometry x="100" y="320" width="40" height="40" as="geometry" />
        </mxCell>
        <mxCell id="fP4-B5e6X9TCayEdW0Dm-40" style="edgeStyle=orthogonalEdgeStyle;rounded=0;orthogonalLoop=1;jettySize=auto;html=1;exitX=0.5;exitY=1;exitDx=0;exitDy=0;entryX=0.5;entryY=0;entryDx=0;entryDy=0;" edge="1" parent="1" source="fP4-B5e6X9TCayEdW0Dm-25" target="fP4-B5e6X9TCayEdW0Dm-37">
          <mxGeometry relative="1" as="geometry" />
        </mxCell>
        <mxCell id="fP4-B5e6X9TCayEdW0Dm-25" value="Login to Manager Session" style="rounded=0;whiteSpace=wrap;html=1;" vertex="1" parent="1">
          <mxGeometry x="870" y="570" width="120" height="60" as="geometry" />
        </mxCell>
        <mxCell id="fP4-B5e6X9TCayEdW0Dm-39" style="edgeStyle=orthogonalEdgeStyle;rounded=0;orthogonalLoop=1;jettySize=auto;html=1;exitX=0.5;exitY=1;exitDx=0;exitDy=0;entryX=0.5;entryY=0;entryDx=0;entryDy=0;" edge="1" parent="1" source="fP4-B5e6X9TCayEdW0Dm-27" target="fP4-B5e6X9TCayEdW0Dm-38">
          <mxGeometry relative="1" as="geometry" />
        </mxCell>
        <mxCell id="fP4-B5e6X9TCayEdW0Dm-27" value="Login to Staff&amp;nbsp;&lt;div&gt;Session&lt;/div&gt;" style="rounded=0;whiteSpace=wrap;html=1;" vertex="1" parent="1">
          <mxGeometry x="440" y="570" width="120" height="60" as="geometry" />
        </mxCell>
        <mxCell id="fP4-B5e6X9TCayEdW0Dm-29" value="TRUE" style="text;html=1;align=center;verticalAlign=middle;whiteSpace=wrap;rounded=0;" vertex="1" parent="1">
          <mxGeometry x="160" y="320" width="60" height="30" as="geometry" />
        </mxCell>
        <mxCell id="fP4-B5e6X9TCayEdW0Dm-30" value="FALSE" style="text;html=1;align=center;verticalAlign=middle;whiteSpace=wrap;rounded=0;" vertex="1" parent="1">
          <mxGeometry x="270" y="220" width="60" height="30" as="geometry" />
        </mxCell>
        <mxCell id="fP4-B5e6X9TCayEdW0Dm-35" style="edgeStyle=orthogonalEdgeStyle;rounded=0;orthogonalLoop=1;jettySize=auto;html=1;exitX=0.5;exitY=0;exitDx=0;exitDy=0;entryX=0.5;entryY=1;entryDx=0;entryDy=0;" edge="1" parent="1" source="fP4-B5e6X9TCayEdW0Dm-32" target="fP4-B5e6X9TCayEdW0Dm-18">
          <mxGeometry relative="1" as="geometry" />
        </mxCell>
        <mxCell id="fP4-B5e6X9TCayEdW0Dm-32" value="Login attempt +1" style="rounded=0;whiteSpace=wrap;html=1;" vertex="1" parent="1">
          <mxGeometry x="210" y="430" width="120" height="60" as="geometry" />
        </mxCell>
        <mxCell id="fP4-B5e6X9TCayEdW0Dm-37" value="" style="ellipse;whiteSpace=wrap;html=1;aspect=fixed;" vertex="1" parent="1">
          <mxGeometry x="910" y="670" width="40" height="40" as="geometry" />
        </mxCell>
        <mxCell id="fP4-B5e6X9TCayEdW0Dm-38" value="" style="ellipse;whiteSpace=wrap;html=1;aspect=fixed;" vertex="1" parent="1">
          <mxGeometry x="480" y="670" width="40" height="40" as="geometry" />
        </mxCell>
        <mxCell id="fP4-B5e6X9TCayEdW0Dm-41" value="TRUE" style="text;html=1;align=center;verticalAlign=middle;whiteSpace=wrap;rounded=0;" vertex="1" parent="1">
          <mxGeometry x="780" y="580" width="60" height="30" as="geometry" />
        </mxCell>
        <mxCell id="fP4-B5e6X9TCayEdW0Dm-42" value="FALSE" style="text;html=1;align=center;verticalAlign=middle;whiteSpace=wrap;rounded=0;" vertex="1" parent="1">
          <mxGeometry x="580" y="580" width="60" height="30" as="geometry" />
        </mxCell>
      </root>
    </mxGraphModel>
  </diagram>
</mxfile>
